<svg version="1.1" viewBox="0 0 700 700" xmlns="http://www.w3.org/2000/svg">
<path d="m446.25 166.25c2.3203 0 4.5469-0.92188 6.1875-2.5625s2.5625-3.8672 2.5625-6.1875v-35c0-2.3203-0.92188-4.5469-2.5625-6.1875s-3.8672-2.5625-6.1875-2.5625h-0.69922c-2.8047-19.594-14.918-36.621-32.512-45.695-17.59-9.0742-38.488-9.0742-56.078 0-17.594 9.0742-29.707 26.102-32.512 45.695h-0.69922c-4.832 0-8.75 3.918-8.75 8.75v8.75h-17.5v-61.25c0-2.3203-0.92188-4.5469-2.5625-6.1875s-3.8672-2.5625-6.1875-2.5625h-35c-4.832 0-8.75 3.918-8.75 8.75v420c0 2.3203 0.92188 4.5469 2.5625 6.1875s3.8672 2.5625 6.1875 2.5625h35c2.3203 0 4.5469-0.92188 6.1875-2.5625s2.5625-3.8672 2.5625-6.1875v-61.25h17.5v8.75c0 2.3203 0.92188 4.5469 2.5625 6.1875s3.8672 2.5625 6.1875 2.5625h0.69922c2.8047 19.594 14.918 36.621 32.512 45.695 17.59 9.0742 38.488 9.0742 56.078 0 17.594-9.0742 29.707-26.102 32.512-45.695h0.69922c2.3203 0 4.5469-0.92188 6.1875-2.5625s2.5625-3.8672 2.5625-6.1875v-35c0-2.3203-0.92188-4.5469-2.5625-6.1875s-3.8672-2.5625-6.1875-2.5625zm-17.5 188.88-38.621 38.621h-36.508l75.129-75.129zm8.75 73.621h-105v-17.5h105zm0-280h-105v-17.5h105zm-64.871 17.5-31.379 31.379v-31.379zm56.121 127.63-87.5 87.5v-36.508l87.5-87.5zm0-61.25-87.5 87.5v-36.508l87.5-87.5zm0-61.25-87.5 87.5v-36.508l56.121-56.121h31.379zm-43.75-92.629c10.082 0.011719 19.848 3.5 27.66 9.8789 7.8086 6.375 13.18 15.246 15.211 25.121h-85.742c2.0312-9.875 7.4023-18.746 15.211-25.121 7.8125-6.3789 17.578-9.8672 27.66-9.8789zm-105 402.5h-17.5v-402.5h17.5zm17.5-70v-262.5h17.5v8.75c0 2.3203 0.92188 4.5469 2.5625 6.1875s3.8672 2.5625 6.1875 2.5625v227.5c-4.832 0-8.75 3.918-8.75 8.75v8.75zm87.5 70c-10.082-0.011719-19.848-3.5-27.66-9.8789-7.8086-6.375-13.18-15.246-15.211-25.121h85.742c-2.0312 9.875-7.4023 18.746-15.211 25.121-7.8125 6.3789-17.578 9.8672-27.66 9.8789zm29.871-87.5 13.879-13.879v13.879z"/>
</svg>
